<svg xmlns="http://www.w3.org/2000/svg" xmlns:xlink="http://www.w3.org/1999/xlink" width="500" zoomAndPan="magnify" viewBox="0 0 375 374.999991" height="500" preserveAspectRatio="xMidYMid meet" version="1.0"><defs><clipPath id="264a195442"><path d="M 185 112.5 L 190 112.5 L 190 132 L 185 132 Z M 185 112.5 " clip-rule="nonzero"/></clipPath><clipPath id="dd63235fa1"><path d="M 243 185 L 262.5 185 L 262.5 190 L 243 190 Z M 243 185 " clip-rule="nonzero"/></clipPath><clipPath id="313dd59f87"><path d="M 185 243 L 190 243 L 190 262.5 L 185 262.5 Z M 185 243 " clip-rule="nonzero"/></clipPath><clipPath id="aaf508237f"><path d="M 112.5 185 L 132 185 L 132 190 L 112.5 190 Z M 112.5 185 " clip-rule="nonzero"/></clipPath></defs><path fill="#ffc107" d="M 187.457031 236.226562 C 160.566406 236.226562 138.6875 214.34375 138.6875 187.457031 C 138.6875 160.566406 160.566406 138.6875 187.457031 138.6875 C 214.34375 138.6875 236.226562 160.566406 236.226562 187.457031 C 236.226562 214.34375 214.34375 236.226562 187.457031 236.226562 Z M 187.457031 236.226562 " fill-opacity="1" fill-rule="evenodd"/><g clip-path="url(#264a195442)"><path fill="#ff9d05" d="M 187.457031 131.304688 C 186.226562 131.304688 185.171875 130.339844 185.171875 129.019531 L 185.171875 114.785156 C 185.171875 113.554688 186.226562 112.5 187.457031 112.5 C 188.773438 112.5 189.742188 113.554688 189.742188 114.785156 L 189.742188 129.019531 C 189.742188 130.339844 188.773438 131.304688 187.457031 131.304688 Z M 187.457031 131.304688 " fill-opacity="1" fill-rule="evenodd"/></g><path fill="#ff9d05" d="M 216.71875 139.125 C 216.277344 139.125 215.925781 139.039062 215.574219 138.863281 C 214.433594 138.246094 214.082031 136.839844 214.695312 135.785156 L 221.902344 123.394531 C 222.515625 122.253906 223.921875 121.902344 224.976562 122.515625 C 226.03125 123.132812 226.472656 124.539062 225.769531 125.679688 L 218.652344 137.984375 C 218.210938 138.773438 217.507812 139.125 216.71875 139.125 Z M 216.71875 139.125 " fill-opacity="1" fill-rule="evenodd"/><path fill="#ff9d05" d="M 238.070312 160.566406 C 237.28125 160.566406 236.488281 160.128906 236.136719 159.425781 C 235.523438 158.28125 235.875 156.964844 236.929688 156.261719 L 249.320312 149.144531 C 250.375 148.527344 251.78125 148.878906 252.394531 150.023438 C 253.007812 151.078125 252.65625 152.480469 251.605469 153.097656 L 239.214844 160.214844 C 238.863281 160.480469 238.511719 160.566406 238.070312 160.566406 Z M 238.070312 160.566406 " fill-opacity="1" fill-rule="evenodd"/><g clip-path="url(#dd63235fa1)"><path fill="#ff9d05" d="M 260.214844 189.742188 L 245.890625 189.742188 C 244.660156 189.742188 243.605469 188.773438 243.605469 187.457031 C 243.605469 186.226562 244.660156 185.171875 245.890625 185.171875 L 260.214844 185.171875 C 261.445312 185.171875 262.5 186.226562 262.5 187.457031 C 262.5 188.773438 261.445312 189.742188 260.214844 189.742188 Z M 260.214844 189.742188 " fill-opacity="1" fill-rule="evenodd"/></g><path fill="#ff9d05" d="M 250.460938 226.121094 C 250.023438 226.121094 249.671875 226.03125 249.320312 225.769531 L 236.929688 218.652344 C 235.875 218.035156 235.523438 216.628906 236.136719 215.574219 C 236.753906 214.433594 238.160156 214.082031 239.214844 214.695312 L 251.605469 221.902344 C 252.65625 222.515625 253.007812 223.921875 252.394531 224.976562 C 252.042969 225.679688 251.253906 226.121094 250.460938 226.121094 Z M 250.460938 226.121094 " fill-opacity="1" fill-rule="evenodd"/><path fill="#ff9d05" d="M 223.835938 252.746094 C 223.042969 252.746094 222.253906 252.308594 221.902344 251.605469 L 214.695312 239.214844 C 214.082031 238.160156 214.433594 236.753906 215.574219 236.136719 C 216.628906 235.523438 218.035156 235.875 218.652344 236.929688 L 225.769531 249.320312 C 226.472656 250.375 226.03125 251.78125 224.976562 252.394531 C 224.625 252.65625 224.1875 252.746094 223.835938 252.746094 Z M 223.835938 252.746094 " fill-opacity="1" fill-rule="evenodd"/><g clip-path="url(#313dd59f87)"><path fill="#ff9d05" d="M 187.457031 262.5 C 186.226562 262.5 185.171875 261.445312 185.171875 260.214844 L 185.171875 245.890625 C 185.171875 244.660156 186.226562 243.605469 187.457031 243.605469 C 188.773438 243.605469 189.742188 244.660156 189.742188 245.890625 L 189.742188 260.214844 C 189.742188 261.445312 188.773438 262.5 187.457031 262.5 Z M 187.457031 262.5 " fill-opacity="1" fill-rule="evenodd"/></g><path fill="#ff9d05" d="M 151.164062 252.746094 C 150.726562 252.746094 150.375 252.65625 150.023438 252.394531 C 148.878906 251.78125 148.527344 250.375 149.144531 249.320312 L 156.261719 236.929688 C 156.964844 235.875 158.28125 235.433594 159.425781 236.136719 C 160.480469 236.753906 160.832031 238.160156 160.214844 239.214844 L 153.097656 251.605469 C 152.65625 252.308594 151.957031 252.746094 151.164062 252.746094 Z M 151.164062 252.746094 " fill-opacity="1" fill-rule="evenodd"/><path fill="#ff9d05" d="M 124.539062 226.121094 C 123.746094 226.121094 122.957031 225.679688 122.515625 224.976562 C 121.902344 223.921875 122.253906 222.515625 123.394531 221.902344 L 135.785156 214.695312 C 136.839844 214.082031 138.246094 214.433594 138.863281 215.574219 C 139.476562 216.628906 139.125 218.035156 138.070312 218.652344 L 125.679688 225.769531 C 125.328125 226.03125 124.890625 226.121094 124.539062 226.121094 Z M 124.539062 226.121094 " fill-opacity="1" fill-rule="evenodd"/><g clip-path="url(#aaf508237f)"><path fill="#ff9d05" d="M 129.019531 189.742188 L 114.785156 189.742188 C 113.554688 189.742188 112.5 188.773438 112.5 187.457031 C 112.5 186.226562 113.554688 185.171875 114.785156 185.171875 L 129.019531 185.171875 C 130.339844 185.171875 131.304688 186.226562 131.304688 187.457031 C 131.304688 188.773438 130.339844 189.742188 129.019531 189.742188 Z M 129.019531 189.742188 " fill-opacity="1" fill-rule="evenodd"/></g><path fill="#ff9d05" d="M 136.929688 160.566406 C 136.488281 160.566406 136.136719 160.480469 135.785156 160.214844 L 123.394531 153.097656 C 122.253906 152.480469 121.902344 151.078125 122.515625 150.023438 C 123.132812 148.878906 124.539062 148.527344 125.679688 149.144531 L 138.070312 156.261719 C 139.125 156.964844 139.476562 158.28125 138.863281 159.425781 C 138.421875 160.128906 137.632812 160.566406 136.929688 160.566406 Z M 136.929688 160.566406 " fill-opacity="1" fill-rule="evenodd"/><path fill="#ff9d05" d="M 158.28125 139.125 C 157.492188 139.125 156.699219 138.773438 156.261719 138.070312 L 149.144531 125.679688 C 148.527344 124.539062 148.878906 123.132812 150.023438 122.515625 C 151.078125 121.902344 152.480469 122.253906 153.097656 123.394531 L 160.214844 135.785156 C 160.832031 136.839844 160.480469 138.246094 159.425781 138.863281 C 159.074219 139.039062 158.632812 139.125 158.28125 139.125 Z M 158.28125 139.125 " fill-opacity="1" fill-rule="evenodd"/><path fill="#ffffff" d="M 203.976562 215.136719 C 203.710938 215.136719 203.449219 215.136719 203.183594 214.960938 L 187.457031 208.898438 L 171.816406 214.960938 C 171.113281 215.3125 170.234375 215.136719 169.617188 214.695312 C 169.003906 214.257812 168.652344 213.554688 168.738281 212.761719 L 169.707031 195.980469 L 158.984375 182.972656 C 158.546875 182.359375 158.371094 181.570312 158.632812 180.777344 C 158.898438 180.074219 159.425781 179.460938 160.214844 179.285156 L 176.472656 175.066406 L 185.609375 160.832031 C 185.960938 160.214844 186.753906 159.863281 187.457031 159.863281 C 188.246094 159.863281 188.949219 160.214844 189.390625 160.832031 L 198.527344 175.066406 L 214.785156 179.285156 C 215.488281 179.460938 216.101562 180.074219 216.367188 180.777344 C 216.628906 181.570312 216.453125 182.359375 215.925781 182.972656 L 205.292969 195.980469 L 206.261719 212.761719 C 206.261719 213.554688 205.910156 214.257812 205.292969 214.695312 C 204.941406 215.046875 204.414062 215.136719 203.976562 215.136719 Z M 203.976562 215.136719 " fill-opacity="1" fill-rule="evenodd"/></svg>